<svg width="1500" height="350" version="1.1" viewBox="0 0 396.87 92.603" xmlns="http://www.w3.org/2000/svg"><g stroke-width=".26458" aria-label="HYVOR®"><rect x="-2.1362e-7" y="1.5869e-6" width="396.88" height="92.603" fill="#f2f2f2" stroke-width="1" style="paint-order:fill markers stroke"/><g transform="matrix(.065326 -.00064504 .00068295 .065325 348.17 18.39)" fill-rule="evenodd"><path d="m243.59 16.703h19.319c81.52 0 147.15 65.633 147.15 147.16v189.37c0 81.526-65.628 147.16-147.15 147.16h-19.319c-81.52 0-147.15-65.633-147.15-147.16v-189.37c0-81.526 65.628-147.16 147.15-147.16z" color="#000000" fill="#fff" stroke-width="109.57"/><path d="m243.59 3.1758c-88.781 0-160.68 71.902-160.68 160.69v189.37c0 88.786 71.895 160.69 160.68 160.69h19.318c88.781 0 160.68-71.902 160.68-160.69v-189.37c0-88.786-71.895-160.69-160.68-160.69zm0 27.055h19.318c74.259 0 133.62 59.366 133.62 133.63v189.37c0 74.267-59.362 133.63-133.62 133.63h-19.318c-74.259 0-133.62-59.366-133.62-133.63v-189.37c0-74.267 59.362-133.63 133.62-133.63z" color="#000000" stroke-width="4.05"/></g><g transform="matrix(.065329 0 0 .065329 348.17 18.39)" fill-rule="evenodd"><path d="m412.76 254.48 0.93506 89.445c0.88264 84.422-68.34 153.08-155.2 153.93-86.868 0.85768-157.52-66.416-158.39-150.84l-0.93517-89.445z" color="#000000" fill="#666" stroke-width="109.57"/><path d="m426.15 240.82-13.518 0.13477-327.13 3.2285 1.0781 102.98c0.95221 91.89 78.128 165.15 172.05 164.22 93.92-0.9192 169.56-75.708 168.6-167.6zm-26.77 27.32 0.79296 75.926c0.80455 76.952-62.001 139.48-141.81 140.26h-2e-3c-79.812 0.78802-143.93-60.5-144.73-137.45v-2e-3l-0.79492-75.91z" color="#000000" stroke-width="4.05"/></g><g stroke-linecap="round" stroke-linejoin="round" stroke-width=".26458"><path d="m361.15 24.353c-0.6695 0-1.2869 0.15606-1.7953 0.46713-0.50837 0.31107-0.9585 0.84736-0.9585 1.5365a0.82096 0.82096 0 0 0 0.82095 0.82095 0.82096 0.82096 0 0 0 0.82095-0.82095c0 0.03593-0.0176-0.01901 0.17366-0.13602 0.19121-0.117 0.5402-0.22572 0.93821-0.22572 0.39802 0 0.74713 0.10872 0.93834 0.22572 0.19121 0.117 0.17366 0.17194 0.17366 0.13602a0.82096 0.82096 0 0 0 0.82095 0.82095 0.82096 0.82096 0 0 0 0.82095-0.82095c0-0.68914-0.45026-1.2254-0.95863-1.5365-0.50836-0.31107-1.1258-0.46713-1.7953-0.46713z" color="#000000" style="paint-order:stroke fill markers"/><path d="m368.62 24.353c-0.66949 0-1.2869 0.15606-1.7953 0.46713-0.50836 0.31107-0.9585 0.84736-0.9585 1.5365a0.82096 0.82096 0 0 0 0.82095 0.82095 0.82096 0.82096 0 0 0 0.82095-0.82095c0 0.03593-0.0176-0.01901 0.17366-0.13602 0.19122-0.117 0.54021-0.22572 0.93821-0.22572 0.39803 0 0.74713 0.10872 0.93834 0.22572 0.19121 0.117 0.17366 0.17194 0.17366 0.13602a0.82096 0.82096 0 0 0 0.82095 0.82095 0.82096 0.82096 0 0 0 0.82095-0.82095c0-0.68914-0.45026-1.2254-0.95863-1.5365-0.50836-0.31107-1.1258-0.46713-1.7953-0.46713z" color="#000000" style="paint-order:stroke fill markers"/><path d="m362.9 29.592a0.82096 0.82096 0 0 0-0.82095 0.82095c0 0.68915 0.45026 1.2256 0.95863 1.5366 0.50836 0.31107 1.1258 0.467 1.7953 0.467 0.66951 0 1.2869-0.15593 1.7953-0.467 0.50837-0.31107 0.9585-0.8475 0.9585-1.5366a0.82096 0.82096 0 0 0-0.82095-0.82095 0.82096 0.82096 0 0 0-0.82095 0.82095c0-0.03592 0.0176 0.01902-0.17366 0.13602-0.19121 0.117-0.54019 0.22572-0.93821 0.22572-0.39801 0-0.74713-0.10871-0.93834-0.22572-0.19121-0.117-0.17366-0.17195-0.17366-0.13602a0.82096 0.82096 0 0 0-0.82095-0.82095z" color="#000000" style="paint-order:stroke fill markers"/></g><path d="m320.23 74.038v-9.6138h2.2112v3.8181h3.8043v-3.8181h2.2112v9.6138h-2.2112v-3.7906h-3.8043v3.7906z"/><path d="m333.4 74.038v-4.2575l-3.7906-5.3563h2.5271l2.3897 3.4198 2.17-3.4198h2.4447l-3.5159 5.3288v4.285z"/><path d="m343.02 74.038-3.8455-9.6138h2.321l1.9228 5.0404q0.21974 0.57683 0.35708 0.97511t0.26095 0.78284q0.10987-0.39829 0.24721-0.79657t0.35708-0.96138l1.8404-5.0404h2.2798l-3.8592 9.6138z"/><path d="m354.01 74.175q-1.0712 0-1.9777-0.37082-0.90645-0.37082-1.5794-1.03-0.65923-0.67297-1.03-1.5794-0.35709-0.92018-0.35709-1.9914 0-1.085 0.35709-1.9914 0.37082-0.90644 1.03-1.5794 0.67296-0.67297 1.5794-1.0438 0.90644-0.37082 1.9777-0.37082 1.0713 0 1.964 0.37082 0.90644 0.37082 1.5657 1.0438 0.67297 0.67297 1.03 1.5931 0.37082 0.90644 0.37082 1.9777t-0.37082 1.9777q-0.35708 0.90644-1.03 1.5794-0.65923 0.67297-1.5657 1.0438-0.89271 0.37082-1.964 0.37082zm0-2.0876q0.78284 0 1.3871-0.37082 0.60429-0.38455 0.94764-1.03 0.35709-0.65923 0.35709-1.4833 0-0.83777-0.35709-1.4833-0.34335-0.65923-0.94764-1.03-0.6043-0.38455-1.3871-0.38455-0.78283 0-1.3871 0.37082t-0.96138 1.03q-0.34335 0.6455-0.34335 1.497 0 0.83777 0.34335 1.497 0.35708 0.6455 0.96138 1.0163t1.3871 0.37082z"/><path d="m360.77 74.038v-9.6138h4.2987q0.92018 0 1.6481 0.39829t1.1537 1.0987q0.43948 0.6867 0.43948 1.5657 0 0.94765-0.49442 1.703-0.48069 0.74164-1.291 1.1262l2.17 3.7356-2.5408-0.01373-1.9228-3.406h-1.3459v3.406zm2.115-5.1502h2.0189q0.5631 0 0.89271-0.35708 0.32962-0.37082 0.32962-0.93391 0-0.59056-0.39829-0.94765-0.38455-0.35708-1.0438-0.35708h-1.7992z"/><path d="m372.73 70.756q-0.94764 0-1.7305-0.45322-0.76911-0.45322-1.2361-1.2086-0.45322-0.7691-0.45322-1.703t0.45322-1.6893q0.46695-0.7691 1.2498-1.2223t1.7168-0.45322q0.92018 0 1.6756 0.45322 0.7691 0.45322 1.2223 1.2223 0.45322 0.75537 0.45322 1.6893t-0.45322 1.703q-0.45323 0.75537-1.2086 1.2086t-1.6893 0.45322zm0-0.87898q0.6867 0 1.2498-0.32962 0.56309-0.32962 0.89271-0.89271 0.34335-0.57683 0.34335-1.2635 0-0.70043-0.34335-1.2635-0.32962-0.56309-0.89271-0.89271-0.5631-0.34335-1.2498-0.34335-0.70043 0-1.291 0.34335-0.57683 0.32962-0.92018 0.89271t-0.34335 1.2635 0.34335 1.2635 0.92018 0.89271q0.59056 0.32962 1.291 0.32962zm-1.3459-0.87898v-3.2824h1.6481q0.50816 0 0.82404 0.28841t0.31588 0.74164q0 0.30215-0.15107 0.53563-0.13734 0.23348-0.37082 0.35708l0.67297 1.3597h-1.1262l-0.49443-1.1949h-0.27468v1.1949zm1.4009-2.4584h-0.35709v0.6043h0.32962q0.16481 0 0.27468-0.0824 0.12361-0.0824 0.12361-0.21974 0-0.30215-0.37082-0.30215z"/></g></svg>
