
<svg width="1500" height="350" version="1.1" viewBox="0 0 396.87 92.603" xmlns="http://www.w3.org/2000/svg"><rect x="-2.1362e-7" y="1.5869e-6" width="396.88" height="92.603" fill="#f2f2f2" style="paint-order:fill markers stroke"/><g transform="matrix(.065329 0 0 .065329 348.17 18.39)" stroke-width="4.05"><g transform="matrix(.99995 -.0098737 .010454 .99995 0 0)" fill-rule="evenodd"><path d="m243.59 16.703h19.319c81.52 0 147.15 65.633 147.15 147.16v189.37c0 81.526-65.628 147.16-147.15 147.16h-19.319c-81.52 0-147.15-65.633-147.15-147.16v-189.37c0-81.526 65.628-147.16 147.15-147.16z" color="#000000" fill="#fff" stroke-width="109.57"/><path d="m243.59 3.1758c-88.781 0-160.68 71.902-160.68 160.69v189.37c0 88.786 71.895 160.69 160.68 160.69h19.318c88.781 0 160.68-71.902 160.68-160.69v-189.37c0-88.786-71.895-160.69-160.68-160.69zm0 27.055h19.318c74.259 0 133.62 59.366 133.62 133.63v189.37c0 74.267-59.362 133.63-133.62 133.63h-19.318c-74.259 0-133.62-59.366-133.62-133.63v-189.37c0-74.267 59.362-133.63 133.62-133.63z" color="#000000" stroke-width="4.05"/></g><g fill-rule="evenodd"><path d="m412.76 254.48 0.93506 89.445c0.88264 84.422-68.34 153.08-155.2 153.93-86.868 0.85768-157.52-66.416-158.39-150.84l-0.93517-89.445z" color="#000000" fill="#666" stroke-width="109.57"/><path d="m426.15 240.82-13.518 0.13477-327.13 3.2285 1.0781 102.98c0.95221 91.89 78.128 165.15 172.05 164.22 93.92-0.9192 169.56-75.708 168.6-167.6zm-26.77 27.32 0.79296 75.926c0.80455 76.952-62.001 139.48-141.81 140.26h-2e-3c-79.812 0.78802-143.93-60.5-144.73-137.45v-2e-3l-0.79492-75.91z" color="#000000" stroke-width="4.05"/></g><g stroke-linecap="round" stroke-linejoin="round"><path d="m198.76 91.279c-10.248 0-19.699 2.3888-27.48 7.1504-7.7816 4.7616-14.672 12.971-14.672 23.52a12.566 12.566 0 0 0 12.566 12.566 12.566 12.566 0 0 0 12.566-12.566c0 0.55002-0.26873-0.29104 2.6582-2.082 2.9269-1.791 8.269-3.4551 14.361-3.4551 6.0926 0 11.436 1.6641 14.363 3.4551 2.9268 1.7909 2.6582 2.6319 2.6582 2.082a12.566 12.566 0 0 0 12.566 12.566 12.566 12.566 0 0 0 12.566-12.566c0-10.549-6.8922-18.758-14.674-23.52-7.7816-4.7616-17.232-7.1504-27.48-7.1504z" color="#000000" style="paint-order:stroke fill markers"/><path d="m313.08 91.279c-10.248 0-19.699 2.3888-27.48 7.1504-7.7816 4.7616-14.672 12.971-14.672 23.52a12.566 12.566 0 0 0 12.566 12.566 12.566 12.566 0 0 0 12.566-12.566c0 0.55003-0.26873-0.29104 2.6582-2.082 2.9269-1.791 8.269-3.4551 14.361-3.4551 6.0926 0 11.436 1.6641 14.363 3.4551 2.9268 1.7909 2.6582 2.6319 2.6582 2.082a12.566 12.566 0 0 0 12.566 12.566 12.566 12.566 0 0 0 12.566-12.566c0-10.549-6.8922-18.758-14.674-23.52-7.7816-4.7616-17.232-7.1504-27.48-7.1504z" color="#000000" style="paint-order:stroke fill markers"/><path d="m225.41 171.46a12.566 12.566 0 0 0-12.566 12.566c0 10.549 6.8922 18.76 14.674 23.521 7.7816 4.7616 17.232 7.1484 27.48 7.1484 10.248 0 19.699-2.3868 27.48-7.1484 7.7816-4.7616 14.672-12.973 14.672-23.521a12.566 12.566 0 0 0-12.566-12.566 12.566 12.566 0 0 0-12.566 12.566c0-0.54984 0.26863 0.29109-2.6582 2.082-2.9268 1.791-8.2687 3.4551-14.361 3.4551-6.0924 0-11.436-1.6641-14.363-3.4551-2.9269-1.791-2.6582-2.632-2.6582-2.082a12.566 12.566 0 0 0-12.566-12.566z" color="#000000" style="paint-order:stroke fill markers"/></g></g><text x="319.00369" y="74.038025" font-family="'Readex Pro'" font-size="13.734px" font-weight="bold" stroke-width=".26458" word-spacing="0px" style="line-height:1.25" xml:space="preserve"><tspan x="319.00369" y="74.038025" stroke-width=".26458">HYVOR®</tspan></text></svg>
